<?xml version="1.0" encoding="UTF-8" standalone="no"?>
<svg width="16px" height="16px" viewBox="0 0 16 16" version="1.1" xmlns="http://www.w3.org/2000/svg" xmlns:xlink="http://www.w3.org/1999/xlink">
    <!-- Generator: Sketch 42 (36781) - http://www.bohemiancoding.com/sketch -->
    <title></title>
    <desc>Created with Sketch.</desc>
    <defs></defs>
    <g id="Symbols" stroke="none" stroke-width="1" fill="none" fill-rule="evenodd">
        <g id="Nav" transform="translate(-1460.000000, -35.000000)" fill="#D0011B">
            <g id="Narrow-Nav">
                <g id="Group-3" transform="translate(1381.000000, 35.000000)">
                    <path d="M84.94,9.68 C85.6200034,9.68 86.2466638,9.5100017 86.82,9.17 C87.3933362,8.8299983 87.846665,8.3733362 88.18,7.8 C88.513335,7.2266638 88.68,6.6000034 88.68,5.92 C88.68,5.2399966 88.513335,4.6133362 88.18,4.04 C87.846665,3.4666638 87.3933362,3.013335 86.82,2.68 C86.2466638,2.346665 85.6200034,2.18 84.94,2.18 C84.2599966,2.18 83.6333362,2.346665 83.06,2.68 C82.4866638,3.013335 82.0300017,3.4666638 81.69,4.04 C81.3499983,4.6133362 81.18,5.2399966 81.18,5.92 C81.18,6.6000034 81.3499983,7.2266638 81.69,7.8 C82.0300017,8.3733362 82.4866638,8.8299983 83.06,9.17 C83.6333362,9.5100017 84.2599966,9.68 84.94,9.68 Z M89.94,9.68 L94.08,13.82 L92.82,15.08 L88.68,10.92 L88.68,10.26 L88.44,10.04 C87.973331,10.4533354 87.4366697,10.7699989 86.83,10.99 C86.2233303,11.2100011 85.5933366,11.32 84.94,11.32 C83.9533284,11.32 83.0433375,11.0800024 82.21,10.6 C81.3766625,10.1199976 80.7200024,9.4733374 80.24,8.66 C79.7466642,7.8199958 79.5,6.9066716 79.5,5.92 C79.5,4.9333284 79.7433309,4.0233375 80.23,3.19 C80.7166691,2.3566625 81.3766625,1.7000024 82.21,1.22 C83.0433375,0.7399976 83.9533284,0.5 84.94,0.5 C85.9266716,0.5 86.8399958,0.7466642 87.68,1.24 C88.4933374,1.7200024 89.1366643,2.3733292 89.61,3.2 C90.0833357,4.0266708 90.32,4.9333284 90.32,5.92 C90.32,6.58667 90.2100011,7.2233303 89.99,7.83 C89.7699989,8.4366697 89.4533354,8.973331 89.04,9.44 L89.26,9.68 L89.94,9.68 Z" id=""></path>
                </g>
            </g>
        </g>
    </g>
</svg>