<?xml version="1.0" encoding="UTF-8" standalone="no"?>
<svg width="16px" height="16px" viewBox="0 0 16 16" version="1.1" xmlns="http://www.w3.org/2000/svg" xmlns:xlink="http://www.w3.org/1999/xlink">
    <!-- Generator: Sketch 42 (36781) - http://www.bohemiancoding.com/sketch -->
    <title>shopping-basket</title>
    <desc>Created with Sketch.</desc>
    <defs></defs>
    <g id="Symbols" stroke="none" stroke-width="1" fill="none" fill-rule="evenodd">
        <g id="Nav" transform="translate(-1427.000000, -35.000000)" fill-rule="nonzero" fill="#000000">
            <g id="Narrow-Nav">
                <g id="Group-3" transform="translate(1381.000000, 35.000000)">
                    <g id="shopping-basket" transform="translate(46.000000, 0.000000)">
                        <g id="Group">
                            <path d="M15.3338776,5.50530612 L13.5706122,5.50530612 C13.5346939,2.46204082 11.0497959,0 8,0 C4.95020408,0 2.46530612,2.46204082 2.43265306,5.50530612 L0.669387755,5.50530612 C0.0457142857,5.55428571 -0.0195918367,6.08979592 0.0130612245,6.28244898 L1.56734694,15.444898 C1.62285714,15.764898 1.90040816,16 2.22367347,16 L13.7763265,16 C14.1028571,16 14.3804082,15.764898 14.4326531,15.444898 L15.9902041,6.28244898 C16.0228571,6.08979592 15.9444898,5.55102041 15.3338776,5.50530612 Z M8,1.3322449 C10.315102,1.3322449 12.1991837,3.19673469 12.235102,5.50204082 L3.76489796,5.50204082 C3.80081633,3.19673469 5.68489796,1.3322449 8,1.3322449 Z M13.2146939,14.6677551 L2.78857143,14.6677551 L1.45632653,6.83755102 L14.5436735,6.83755102 L13.2146939,14.6677551 Z" id="Shape"></path>
                            <path d="M5.22122449,9.75346939 L10.7755102,9.75346939 C11.1444898,9.75346939 11.4416327,9.45632653 11.4416327,9.08734694 C11.4416327,8.71836735 11.1444898,8.42122449 10.7755102,8.42122449 L5.22122449,8.42122449 C4.8522449,8.42122449 4.55510204,8.71836735 4.55510204,9.08734694 C4.55510204,9.45632653 4.8555102,9.75346939 5.22122449,9.75346939 Z" id="Shape"></path>
                            <path d="M5.22122449,13.0840816 L10.7755102,13.0840816 C11.1444898,13.0840816 11.4416327,12.7869388 11.4416327,12.4179592 C11.4416327,12.0489796 11.1444898,11.7518367 10.7755102,11.7518367 L5.22122449,11.7518367 C4.8522449,11.7518367 4.55510204,12.0489796 4.55510204,12.4179592 C4.55510204,12.7869388 4.8555102,13.0840816 5.22122449,13.0840816 Z" id="Shape"></path>
                        </g>
                    </g>
                </g>
            </g>
        </g>
    </g>
</svg>